# xmcd
#
# Track frame offsets:
#	150
#	20750
#	37895
#	55300
#	80637
#	95033
#	113525
#	130370
#	148465
#	166435
#	183283
#	193523
#	207568
#	226580
#
# Disc length: 3219 seconds
#
# Revision: 1
# Processed by: cddbd v1.5.1PL0 Copyright (c) Steve Scherf et al.
# Submitted via: audiograbber 1.82.01
#
DISCID=c60c910e
DTITLE=Cleiton and Camargo - Cleiton and Camargo
DYEAR=1993
DGENRE=Sertanejo
TTITLE0=Me Esqueça
TTITLE1=Meu Ponto Fraco
TTITLE2=Chamando o Seu Amor
TTITLE3=O Meu Anjo Azul
TTITLE4=Como Eu Te Quero
TTITLE5=E Diz Que Me Adora
TTITLE6=Ninguém Vai Te Amar
TTITLE7=Pra Não Morrer de Amor
TTITLE8=Você Vai Sentir Saudades
TTITLE9=Perdido de Amor
TTITLE10=Sempre Seu Homem
TTITLE11=Acabadinho
TTITLE12=Sem Você Aqui
TTITLE13=Quando Chora
EXTD=
EXTT0=
EXTT1=
EXTT2=
EXTT3=
EXTT4=
EXTT5=
EXTT6=
EXTT7=
EXTT8=
EXTT9=
EXTT10=
EXTT11=
EXTT12=
EXTT13=
PLAYORDER=
